<svg width="698" height="698" xmlns="http://www.w3.org/2000/svg" xmlns:xlink="http://www.w3.org/1999/xlink">
  <defs>
    <linearGradient x1="50%" y1="1.19563%" x2="50%" y2="100%" id="b">
      <stop stop-color="#3E59FF" offset="0%"/>
      <stop stop-color="#193353" offset="100%"/>
    </linearGradient>
    <path id="a" d="M0 0h698v698H0z"/>
  </defs>
  <g fill="none" fill-rule="evenodd">
    <mask id="c" fill="#fff">
      <use xlink:href="#a"/>
    </mask>
    <use fill="#D8D8D8" xlink:href="#a"/>
    <path fill="url(#b)" mask="url(#c)" d="M-370 0H757v698H-370z"/>
    <g mask="url(#c)" fill="#FFF" fill-rule="nonzero">
      <path d="M349.01991 334.14323c98.45304 0 242.166 84.10125 408.45806 293.69335 36.10623 49.62686 79.02687 105.76215 98.24963 131.38914 82.79005 110.3384 287.12079 314.439 498.36766 314.439 245.49873-.6166 444.20388-199.7506 444.25917-445.21797h-154.39227c-4.78026 181.82954-154.29056 292.8798-289.35837 293.38827-98.45304 0-242.166-84.10125-408.35635-293.69335-36.10623-49.62686-79.02688-105.76215-98.24963-131.38914-82.99347-110.64348-287.42592-314.74409-498.9779-314.74409v152.13479z"/>
      <path d="M349.01991 921.93672c98.45304 0 242.166-84.20295 408.45806-293.79506 36.10623-49.62685 79.02687-105.76214 98.24963-131.38913 82.79005-110.3384 287.12079-314.439 498.36766-314.439 245.61341 1.28772 443.97801 200.85376 443.75082 446.4383h-154.39246c-4.78026-181.82954-154.29056-293.69336-289.35836-294.30352-98.45304 0-242.166 84.10125-408.35636 293.69335-36.10623 49.62686-79.02687 105.76216-98.24963 131.38914-82.79005 110.3384-287.2225 314.5407-498.36766 314.5407l-.1017-152.13478z"/>
      <path d="M351.05406 921.93672c-98.45304 0-244.09845-84.10125-410.39051-293.69336-36.10623-49.62686-79.02687-105.76215-98.24963-131.38913-83.2986-110.64348-287.3242-314.7441-498.9779-314.7441-245.59701 1.23194-443.97776 200.76877-443.75083 446.33662h154.39246c4.78026-181.82954 154.29056-293.59166 289.35837-294.20183 98.45304 0 242.166 84.10125 408.35636 293.69336 36.10622 49.62685 79.02687 105.76215 98.24962 131.38913 82.79006 110.3384 289.15495 314.439 500.80864 314.439l.20342-151.8297z"/>
      <path d="M351.05406 334.14323c-98.45304 0-244.09845 84.10125-410.39051 293.69335-36.10623 49.62686-79.02687 105.76215-98.24963 131.38914-82.79005 110.3384-287.1208 314.439-498.36766 314.439-245.53847-.56064-444.30544-199.711-444.36088-445.21797h154.39227c4.78026 181.82954 154.29056 292.8798 289.35837 293.38827 98.45304 0 242.166-84.10125 408.35636-293.69335 36.10622-49.62686 79.02687-105.76215 98.24962-131.38914 82.99347-110.64348 289.35837-314.74409 501.01206-314.74409v152.13479z"/>
    </g>
  </g>
</svg>
